<svg xmlns="http://www.w3.org/2000/svg" xmlns:xlink="http://www.w3.org/1999/xlink" width="326" zoomAndPan="magnify" viewBox="0 0 244.5 175.5" height="234" preserveAspectRatio="xMidYMid meet" version="1.0"><defs><g/><clipPath id="ac28aa7972"><path d="M 153.65625 16.996094 L 236.125 16.996094 L 236.125 99.46875 L 153.65625 99.46875 Z M 153.65625 16.996094 " clip-rule="nonzero"/></clipPath><clipPath id="1620c53d7e"><path d="M 194.890625 16.996094 C 172.117188 16.996094 153.65625 35.460938 153.65625 58.234375 C 153.65625 81.007812 172.117188 99.46875 194.890625 99.46875 C 217.664062 99.46875 236.125 81.007812 236.125 58.234375 C 236.125 35.460938 217.664062 16.996094 194.890625 16.996094 Z M 194.890625 16.996094 " clip-rule="nonzero"/></clipPath><clipPath id="586e36da32"><path d="M 7.875 58.234375 L 171.65625 58.234375 L 171.65625 138.253906 L 7.875 138.253906 Z M 7.875 58.234375 " clip-rule="nonzero"/></clipPath></defs><g clip-path="url(#ac28aa7972)"><g clip-path="url(#1620c53d7e)"><path fill="#ffde59" d="M 153.65625 16.996094 L 236.125 16.996094 L 236.125 99.46875 L 153.65625 99.46875 Z M 153.65625 16.996094 " fill-opacity="1" fill-rule="nonzero"/></g></g><g fill="#000000" fill-opacity="1"><g transform="translate(177.078387, 77.494251)"><g><path d="M 15.019531 0.503906 L 19.429688 0.613281 L 20.546875 0.503906 L 21.664062 0.222656 L 22.78125 0.0546875 L 23.898438 -0.390625 L 24.902344 -0.503906 L 25.960938 -1.003906 L 29.757812 -3.292969 L 31.378906 -4.96875 L 31.9375 -5.75 L 32.550781 -6.980469 L 32.886719 -7.984375 L 33.222656 -8.933594 L 33.554688 -11.726562 L 33.445312 -13.511719 L 32.605469 -16.75 L 31.992188 -17.644531 L 30.542969 -19.320312 L 29.535156 -20.210938 L 28.644531 -20.660156 L 27.636719 -21.273438 L 23.28125 -22.613281 L 22.167969 -22.78125 L 21.050781 -22.835938 L 19.875 -23.058594 L 18.257812 -23.058594 L 15.296875 -23.671875 L 13.234375 -24.679688 L 12.394531 -25.460938 L 12.171875 -27.136719 L 12.449219 -28.644531 L 13.121094 -29.367188 L 13.957031 -29.984375 L 14.851562 -30.484375 L 15.855469 -30.707031 L 17.644531 -30.765625 L 19.429688 -30.542969 L 20.433594 -30.261719 L 21.441406 -29.59375 L 22.390625 -28.808594 L 23.226562 -27.695312 L 24.457031 -26.96875 L 27.078125 -27.191406 L 28.585938 -27.078125 L 29.703125 -27.078125 L 30.707031 -26.96875 L 31.769531 -27.75 L 32.214844 -28.699219 L 31.992188 -29.757812 L 31.882812 -30.820312 L 30.316406 -33.722656 L 29.089844 -35.398438 L 25.40625 -37.96875 L 22.277344 -39.027344 L 20.101562 -39.472656 L 15.800781 -39.585938 L 14.574219 -39.25 L 13.457031 -39.195312 L 12.449219 -39.027344 L 10.328125 -38.359375 L 8.429688 -37.242188 L 5.75 -35.398438 L 3.796875 -32.773438 L 2.792969 -29.703125 L 2.625 -26.96875 L 2.679688 -25.238281 L 3.070312 -23.003906 L 3.964844 -21.050781 L 6.03125 -18.480469 L 9.828125 -16.414062 L 11.835938 -15.746094 L 20.601562 -14.738281 L 22.613281 -13.789062 L 23.339844 -13.121094 L 23.671875 -11.726562 L 23.226562 -10.328125 L 22.5 -9.492188 L 20.601562 -8.652344 L 18.871094 -8.542969 L 17.867188 -8.375 L 15.019531 -8.652344 L 14.070312 -9.15625 L 13.121094 -9.769531 L 11.277344 -11.78125 L 10.160156 -12.226562 L 9.15625 -12.117188 L 8.097656 -12.285156 L 3.796875 -12.058594 L 2.792969 -11.613281 L 2.34375 -10.441406 L 2.511719 -9.324219 L 2.734375 -8.207031 L 3.070312 -7.203125 L 4.132812 -5.136719 L 4.914062 -4.410156 L 5.640625 -3.574219 L 7.59375 -2.34375 L 8.375 -1.507812 L 9.4375 -1.003906 L 10.550781 -0.671875 L 12.730469 0.113281 Z M 15.019531 0.503906 "/></g></g></g><g clip-path="url(#586e36da32)"><path fill="#00bf63" d="M 92.316406 58.578125 L 76.445312 97.523438 L 66.363281 122.261719 L 59.707031 138.59375 L 40.488281 138.59375 L 7.875 58.578125 L 27.210938 58.578125 L 50.15625 114.953125 L 58.175781 95.238281 L 68.695312 69.398438 L 73.101562 58.578125 Z M 152.839844 58.234375 L 138.046875 111.925781 L 120.34375 58.234375 L 101.707031 58.234375 L 84 111.925781 L 79.9375 97.179688 L 69.855469 121.917969 L 74.796875 138.25 L 92.152344 138.25 L 111.136719 83.269531 L 130.003906 138.25 L 147.246094 138.25 L 171.472656 58.234375 Z M 152.839844 58.234375 " fill-opacity="1" fill-rule="nonzero"/></g><g fill="#000000" fill-opacity="1"><g transform="translate(12.041404, 162.220302)"><g><path d="M 6.003906 0.15625 L 6.421875 0.015625 L 6.804688 -0.488281 L 7.03125 -0.976562 L 7.136719 -1.34375 L 7.46875 -1.902344 L 7.574219 -2.25 L 7.746094 -2.617188 L 7.851562 -2.914062 L 8.042969 -3.226562 L 8.722656 -4.816406 L 8.847656 -5.199219 L 9.160156 -5.757812 L 10.679688 -9.351562 L 10.851562 -9.667969 L 11.148438 -10.292969 L 11.238281 -10.625 L 11.570312 -11.238281 L 11.691406 -11.707031 L 11.605469 -12.074219 L 11.289062 -12.144531 L 10.921875 -12.179688 L 10.609375 -12.230469 L 10.277344 -12.195312 L 9.929688 -12.179688 L 9.265625 -12.25 L 8.882812 -12.023438 L 8.585938 -11.726562 L 6.960938 -7.886719 L 6.859375 -7.519531 L 6.699219 -7.222656 L 6.628906 -6.910156 L 6.457031 -6.597656 L 6.105469 -5.617188 L 5.933594 -5.304688 L 5.742188 -5.339844 L 5.304688 -6.28125 L 5.234375 -6.613281 L 4.9375 -7.207031 L 4.066406 -9.476562 L 3.613281 -10.398438 L 3.125 -11.726562 L 2.828125 -12.023438 L 2.425781 -12.195312 L 1.429688 -12.230469 L 1.082031 -12.179688 L 0.417969 -12.179688 L 0.140625 -12.058594 L 0 -11.707031 L 0.558594 -10.226562 L 0.734375 -9.964844 L 0.820312 -9.632812 L 0.960938 -9.28125 L 1.152344 -9.019531 L 1.273438 -8.65625 L 2.84375 -5.128906 L 2.949219 -4.78125 L 3.386719 -3.875 L 3.507812 -3.507812 L 3.804688 -2.914062 L 3.996094 -2.601562 L 4.082031 -2.25 L 4.78125 -0.59375 L 4.9375 -0.332031 L 5.285156 -0.0351562 L 5.671875 0.105469 Z M 6.003906 0.15625 "/></g></g></g><g fill="#000000" fill-opacity="1"><g transform="translate(23.801022, 162.220302)"><g><path d="M 0.835938 -0.507812 L 1.011719 -0.140625 L 1.359375 -0.015625 L 6.542969 0.015625 L 6.875 -0.15625 L 7.066406 -0.472656 L 7.066406 -0.855469 L 7.03125 -1.167969 L 7.085938 -2.234375 L 6.839844 -2.53125 L 5.671875 -2.898438 L 5.480469 -3.246094 L 5.515625 -4.675781 L 5.445312 -5.375 L 5.515625 -6.105469 L 5.480469 -6.628906 L 5.515625 -7.171875 L 5.480469 -7.503906 L 5.515625 -7.851562 L 5.480469 -8.21875 L 5.480469 -8.953125 L 5.671875 -9.265625 L 6.003906 -9.457031 L 6.386719 -9.476562 L 6.71875 -9.667969 L 6.910156 -10 L 6.910156 -11.027344 L 6.945312 -11.34375 L 6.910156 -11.691406 L 6.769531 -12.039062 L 6.210938 -12.195312 L 3.996094 -12.214844 L 3.613281 -12.179688 L 2.546875 -12.195312 L 2.214844 -12.179688 L 1.535156 -12.214844 L 1.152344 -12.039062 L 0.960938 -11.671875 L 0.960938 -11.34375 L 0.925781 -11.046875 L 0.925781 -10.660156 L 0.960938 -10.3125 L 0.960938 -9.980469 L 1.132812 -9.648438 L 2.199219 -9.28125 L 2.425781 -8.96875 L 2.375 -7.484375 L 2.390625 -7.1875 L 2.441406 -6.789062 L 2.425781 -6.070312 L 2.390625 -5.722656 L 2.460938 -5.042969 L 2.375 -4.695312 L 2.441406 -3.945312 L 2.40625 -3.261719 L 2.234375 -2.878906 L 1.082031 -2.511719 L 0.871094 -2.179688 L 0.835938 -1.847656 Z M 0.835938 -0.507812 "/></g></g></g><g fill="#000000" fill-opacity="1"><g transform="translate(31.722195, 162.220302)"><g><path d="M 6.421875 0.175781 L 7.46875 0.226562 L 9.160156 -0.121094 L 10.121094 -0.539062 L 10.382812 -0.714844 L 10.695312 -0.90625 L 10.992188 -1.117188 L 11.21875 -1.34375 L 11.410156 -1.640625 L 11.707031 -1.867188 L 12.230469 -2.773438 L 12.390625 -3.089844 L 12.476562 -3.421875 L 12.597656 -3.769531 L 12.652344 -4.101562 L 12.546875 -4.414062 L 12.109375 -4.605469 L 10.242188 -4.625 L 9.859375 -4.449219 L 9.507812 -4.117188 L 9.371094 -3.820312 L 8.707031 -3.105469 L 8.113281 -2.808594 L 7.765625 -2.703125 L 7.398438 -2.667969 L 6.421875 -2.6875 L 5.480469 -3.035156 L 5.148438 -3.191406 L 4.921875 -3.4375 L 4.273438 -4.273438 L 4.136719 -4.570312 L 3.925781 -5.253906 L 3.875 -6.070312 L 3.890625 -6.628906 L 4.011719 -6.945312 L 4.03125 -7.292969 L 4.136719 -7.609375 L 4.433594 -8.234375 L 4.867188 -8.777344 L 5.445312 -9.195312 L 5.777344 -9.335938 L 6.386719 -9.507812 L 7.46875 -9.476562 L 8.132812 -9.351562 L 8.496094 -9.230469 L 9.003906 -8.8125 L 9.265625 -8.53125 L 9.421875 -8.234375 L 9.738281 -7.90625 L 10.121094 -7.746094 L 11.882812 -7.710938 L 12.230469 -7.746094 L 12.511719 -7.90625 L 12.617188 -8.269531 L 12.476562 -8.621094 L 12.421875 -8.933594 L 12.144531 -9.597656 L 11.5 -10.488281 L 10.589844 -11.308594 L 10.207031 -11.570312 L 9.214844 -12.023438 L 8.53125 -12.214844 L 7.660156 -12.335938 L 6.070312 -12.335938 L 5.777344 -12.300781 L 5.445312 -12.195312 L 4.761719 -12.058594 L 4.433594 -11.933594 L 4.171875 -11.777344 L 3.855469 -11.65625 L 2.636719 -10.871094 L 2.425781 -10.589844 L 1.953125 -10.15625 L 1.746094 -9.859375 L 0.941406 -8.289062 L 0.628906 -6.105469 L 0.699219 -5.546875 L 0.699219 -4.851562 L 0.871094 -4.171875 L 1.011719 -3.839844 L 1.0625 -3.523438 L 1.238281 -3.210938 L 1.359375 -2.914062 L 2.058594 -1.902344 L 2.6875 -1.292969 L 2.984375 -1.097656 L 3.246094 -0.890625 L 4.433594 -0.246094 L 4.78125 -0.121094 L 5.042969 -0.0507812 L 5.410156 0.0703125 L 5.777344 0.105469 L 6.089844 0.175781 Z M 6.421875 0.175781 "/></g></g></g><g fill="#000000" fill-opacity="1"><g transform="translate(45.034641, 162.220302)"><g><path d="M 1.34375 -0.523438 L 1.464844 -0.15625 L 1.972656 0.0351562 L 3.804688 0.015625 L 4.308594 -0.15625 L 4.484375 -0.539062 L 4.433594 -2.652344 L 4.46875 -3.035156 L 4.46875 -4.117188 L 4.625 -4.433594 L 5.058594 -4.640625 L 5.582031 -4.535156 L 5.914062 -4.273438 L 6.628906 -3.089844 L 7.066406 -2.179688 L 7.277344 -1.882812 L 7.433594 -1.585938 L 7.660156 -1.292969 L 8.132812 -0.382812 L 8.460938 -0.121094 L 9.054688 0 L 10.992188 0 L 11.359375 0.0351562 L 11.65625 -0.121094 L 11.742188 -0.523438 L 11.585938 -0.941406 L 11.34375 -1.203125 L 11.167969 -1.5 L 11.027344 -1.832031 L 10.765625 -2.128906 L 10.433594 -2.722656 L 10.226562 -3 L 10.085938 -3.316406 L 9.875 -3.628906 L 9.371094 -4.535156 L 8.757812 -5.410156 L 8.757812 -5.792969 L 8.917969 -6.195312 L 9.230469 -6.386719 L 9.738281 -6.890625 L 10.121094 -7.484375 L 10.292969 -7.816406 L 10.382812 -8.132812 L 10.539062 -8.496094 L 10.714844 -9.160156 L 10.730469 -9.492188 L 10.835938 -10.226562 L 10.800781 -10.609375 L 10.871094 -10.941406 L 10.851562 -11.636719 L 10.714844 -12.039062 L 10.347656 -12.230469 L 8.757812 -12.179688 L 8.253906 -12.230469 L 7.835938 -12.023438 L 7.644531 -11.65625 L 7.695312 -10.589844 L 7.609375 -9.859375 L 7.433594 -9.160156 L 7.292969 -8.828125 L 7.066406 -8.566406 L 6.859375 -8.289062 L 6.597656 -8.0625 L 6.28125 -7.871094 L 5.984375 -7.730469 L 5.21875 -7.574219 L 4.796875 -7.554688 L 4.484375 -7.746094 L 4.5 -8.113281 L 4.449219 -8.429688 L 4.5 -10.957031 L 4.449219 -11.289062 L 4.433594 -11.636719 L 4.257812 -12.023438 L 3.945312 -12.195312 L 3.578125 -12.230469 L 3.226562 -12.195312 L 1.816406 -12.230469 L 1.535156 -12.003906 L 1.292969 -11.691406 L 1.292969 -11.324219 L 1.324219 -10.976562 L 1.273438 -9.929688 L 1.292969 -9.597656 L 1.34375 -9.246094 L 1.257812 -8.550781 L 1.308594 -8.183594 L 1.34375 -3.996094 L 1.292969 -3.683594 L 1.308594 -3.316406 L 1.257812 -2.617188 L 1.34375 -1.917969 L 1.308594 -1.535156 L 1.324219 -1.1875 L 1.292969 -0.871094 Z M 1.34375 -0.523438 "/></g></g></g><g fill="#000000" fill-opacity="1"><g transform="translate(57.125768, 162.220302)"><g><path d="M 3.351562 -0.539062 L 3.488281 -0.175781 L 3.855469 0 L 4.1875 -0.0351562 L 4.535156 0 L 4.867188 -0.0351562 L 5.949219 -0.0351562 L 6.300781 -0.175781 L 6.4375 -0.523438 L 6.421875 -0.855469 L 6.457031 -1.257812 L 6.4375 -1.953125 L 6.386719 -2.25 L 6.4375 -2.617188 L 6.472656 -3.683594 L 6.4375 -3.996094 L 6.492188 -4.730469 L 6.421875 -8.199219 L 6.472656 -8.550781 L 6.4375 -8.933594 L 6.578125 -9.246094 L 6.960938 -9.40625 L 7.257812 -9.421875 L 7.609375 -9.40625 L 7.921875 -9.441406 L 8.882812 -9.421875 L 9.28125 -9.578125 L 9.457031 -9.929688 L 9.421875 -10.292969 L 9.457031 -11.726562 L 9.28125 -12.074219 L 8.933594 -12.25 L 8.515625 -12.214844 L 8.234375 -12.25 L 7.90625 -12.25 L 7.519531 -12.195312 L 7.171875 -12.195312 L 6.824219 -12.230469 L 6.472656 -12.230469 L 6.070312 -12.179688 L 0.871094 -12.214844 L 0.488281 -12.039062 L 0.3125 -11.691406 L 0.296875 -9.945312 L 0.488281 -9.5625 L 0.835938 -9.386719 L 1.292969 -9.441406 L 2.84375 -9.421875 L 3.160156 -9.230469 L 3.332031 -8.898438 L 3.386719 -6.980469 L 3.332031 -6.4375 L 3.367188 -6.105469 L 3.332031 -5.757812 L 3.332031 -5.058594 L 3.386719 -4.554688 L 3.316406 -4.03125 L 3.332031 -3.683594 L 3.316406 -3.316406 L 3.367188 -2.25 L 3.332031 -1.902344 Z M 3.351562 -0.539062 "/></g></g></g><g fill="#000000" fill-opacity="1"><g transform="translate(66.878924, 162.220302)"><g><path d="M 6.527344 0.210938 L 7.503906 0.191406 L 8.550781 0.0507812 L 9.859375 -0.382812 L 10.433594 -0.699219 L 10.695312 -0.90625 L 11.027344 -1.0625 L 11.515625 -1.484375 L 11.742188 -1.796875 L 11.988281 -2.042969 L 12.753906 -3.210938 L 13.015625 -3.875 L 13.15625 -4.535156 L 13.175781 -4.851562 L 13.261719 -5.199219 L 13.277344 -5.566406 L 13.347656 -6.070312 L 13.296875 -6.945312 L 13.175781 -7.660156 L 12.738281 -8.96875 L 12.40625 -9.613281 L 12.023438 -10.136719 L 11.535156 -10.679688 L 11.027344 -11.113281 L 10.625 -11.394531 L 10.101562 -11.621094 L 9.839844 -11.8125 L 8.496094 -12.230469 L 7.484375 -12.40625 L 7.015625 -12.421875 L 5.164062 -12.160156 L 3.855469 -11.671875 L 3.59375 -11.480469 L 3.28125 -11.324219 L 2.6875 -10.886719 L 1.832031 -9.894531 L 1.292969 -8.96875 L 1.03125 -8.304688 L 0.734375 -6.960938 L 0.679688 -5.546875 L 0.734375 -5.183594 L 0.820312 -4.867188 L 0.855469 -4.535156 L 1.011719 -3.875 L 1.816406 -2.285156 L 2.023438 -2.078125 L 2.25 -1.796875 L 2.511719 -1.554688 L 2.703125 -1.324219 L 3.28125 -0.871094 L 4.640625 -0.175781 L 5.148438 0 L 5.53125 0.0351562 L 6.160156 0.175781 Z M 7.503906 -2.878906 L 6.542969 -2.878906 L 6.160156 -2.929688 L 5.53125 -3.191406 L 5.253906 -3.351562 L 4.78125 -3.734375 L 4.554688 -3.976562 L 4.308594 -4.308594 L 4.222656 -4.589844 L 4.066406 -4.902344 L 3.925781 -5.546875 L 3.925781 -6.613281 L 4.011719 -6.925781 L 4.066406 -7.257812 L 4.207031 -7.574219 L 4.308594 -7.886719 L 4.730469 -8.445312 L 5.601562 -9.039062 L 5.828125 -9.125 L 6.507812 -9.300781 L 6.996094 -9.335938 L 7.835938 -9.230469 L 8.148438 -9.160156 L 8.460938 -9.019531 L 9.003906 -8.636719 L 9.683594 -7.921875 L 9.894531 -7.257812 L 10.050781 -6.925781 L 10.101562 -6.613281 L 10.066406 -5.546875 L 9.929688 -4.902344 L 9.804688 -4.589844 L 9.613281 -4.273438 L 9.507812 -4.011719 L 9.265625 -3.734375 L 8.429688 -3.160156 L 8.113281 -3.070312 L 7.851562 -2.949219 Z M 7.503906 -2.878906 "/></g></g></g><g fill="#000000" fill-opacity="1"><g transform="translate(80.871824, 162.220302)"><g><path d="M 1.34375 -0.558594 L 1.464844 -0.175781 L 1.816406 0 L 2.144531 0.015625 L 2.863281 -0.0351562 L 3.226562 0 L 3.75 0 L 4.292969 -0.175781 L 4.414062 -0.507812 L 4.449219 -0.871094 L 4.378906 -1.238281 L 4.433594 -1.988281 L 4.398438 -3.070312 L 4.554688 -3.421875 L 4.902344 -3.59375 L 5.21875 -3.59375 L 5.53125 -3.613281 L 5.96875 -3.472656 L 6.246094 -3.175781 L 6.699219 -2.566406 L 6.824219 -2.234375 L 7.3125 -1.359375 L 7.539062 -1.03125 L 7.695312 -0.734375 L 7.90625 -0.453125 L 8.253906 -0.140625 L 8.691406 -0.0351562 L 9.316406 0 L 9.703125 -0.0351562 L 10.050781 0 L 10.75 0 L 11.132812 -0.0351562 L 11.5 -0.121094 L 11.570312 -0.488281 L 11.34375 -0.925781 L 10.785156 -1.78125 L 10.625 -2.078125 L 10.417969 -2.390625 L 10.242188 -2.703125 L 10.015625 -2.984375 L 9.492188 -3.890625 L 9.441406 -4.308594 L 9.632812 -4.675781 L 10.121094 -5.148438 L 10.328125 -5.445312 L 10.453125 -5.777344 L 10.644531 -6.089844 L 10.765625 -6.386719 L 10.957031 -7.050781 L 10.976562 -8.429688 L 10.886719 -8.757812 L 10.835938 -9.089844 L 10.75 -9.441406 L 10.277344 -10.398438 L 10.03125 -10.660156 L 9.875 -10.921875 L 9.003906 -11.585938 L 8.394531 -11.898438 L 6.945312 -12.195312 L 6.507812 -12.230469 L 6.003906 -12.214844 L 5.617188 -12.230469 L 5.269531 -12.195312 L 4.886719 -12.230469 L 4.589844 -12.195312 L 3.542969 -12.230469 L 3.210938 -12.179688 L 2.496094 -12.25 L 2.164062 -12.195312 L 1.78125 -12.214844 L 1.449219 -12.058594 L 1.308594 -11.691406 L 1.257812 -6.804688 L 1.308594 -6.300781 L 1.308594 -5.425781 L 1.273438 -5.058594 L 1.257812 -4.398438 L 1.308594 -4.011719 L 1.257812 -3.296875 L 1.324219 -2.285156 L 1.292969 -1.917969 Z M 4.902344 -6.421875 L 4.605469 -6.578125 L 4.433594 -6.945312 L 4.378906 -8.898438 L 4.589844 -9.246094 L 4.9375 -9.421875 L 5.21875 -9.441406 L 6.175781 -9.421875 L 6.980469 -9.316406 L 7.519531 -8.984375 L 7.695312 -8.722656 L 7.816406 -8.445312 L 7.851562 -7.9375 L 7.800781 -7.46875 L 7.660156 -7.121094 L 7.46875 -6.824219 L 7.257812 -6.613281 L 6.996094 -6.492188 L 5.636719 -6.367188 L 5.285156 -6.421875 Z M 4.902344 -6.421875 "/></g></g></g><g fill="#000000" fill-opacity="1"><g transform="translate(92.962951, 162.220302)"><g/></g></g><g fill="#000000" fill-opacity="1"><g transform="translate(97.691219, 162.220302)"><g><path d="M 4.273438 -0.382812 L 4.554688 -0.0703125 L 4.9375 0.15625 L 5.601562 0.140625 L 5.984375 0 L 6.265625 -0.367188 L 6.421875 -0.664062 L 6.527344 -1.046875 L 6.699219 -1.359375 L 6.789062 -1.65625 L 6.945312 -2.023438 L 7.03125 -2.304688 L 7.574219 -3.59375 L 7.675781 -3.960938 L 7.992188 -4.625 L 8.21875 -5.304688 L 8.394531 -5.253906 L 8.566406 -4.957031 L 8.671875 -4.589844 L 8.96875 -3.996094 L 9.964844 -1.308594 L 10.226562 -0.734375 L 10.328125 -0.402344 L 10.660156 -0.0351562 L 11.0625 0.175781 L 11.394531 0.15625 L 11.691406 0.105469 L 12.109375 -0.0351562 L 12.371094 -0.347656 L 12.476562 -0.679688 L 12.632812 -0.996094 L 13.679688 -4.03125 L 13.835938 -4.328125 L 14.414062 -5.808594 L 14.550781 -6.300781 L 14.710938 -6.613281 L 14.777344 -6.910156 L 15.894531 -9.875 L 15.984375 -10.261719 L 16.15625 -10.574219 L 16.488281 -11.636719 L 16.382812 -12.058594 L 16.035156 -12.144531 L 15.6875 -12.195312 L 15.074219 -12.160156 L 14.378906 -12.195312 L 14.011719 -12.160156 L 13.679688 -12.214844 L 13.3125 -12.039062 L 13.015625 -11.671875 L 12.929688 -11.34375 L 12.773438 -11.046875 L 11.8125 -7.972656 L 11.742188 -7.625 L 11.515625 -6.890625 L 11.394531 -6.160156 L 11.289062 -5.828125 L 11.113281 -5.84375 L 10.765625 -6.839844 L 10.679688 -7.1875 L 9.929688 -9.160156 L 9.753906 -9.824219 L 9.613281 -10.15625 L 9.40625 -10.851562 L 9.265625 -11.148438 L 9.125 -11.464844 L 8.882812 -11.8125 L 8.515625 -12.023438 L 8.132812 -12.023438 L 7.78125 -11.847656 L 7.484375 -11.5 L 6.910156 -9.769531 L 6.648438 -9.144531 L 6.019531 -7.121094 L 5.84375 -6.859375 L 5.777344 -6.492188 L 5.515625 -5.828125 L 5.375 -5.808594 L 5.304688 -6.230469 L 4.1875 -10.03125 L 4.046875 -10.328125 L 3.839844 -11.011719 L 3.769531 -11.359375 L 3.628906 -11.707031 L 3.316406 -11.988281 L 2.984375 -12.144531 L 1.585938 -12.160156 L 1.273438 -12.230469 L 0.960938 -12.179688 L 0.59375 -12.160156 L 0.226562 -12.058594 L 0.15625 -11.65625 L 0.246094 -11.183594 L 0.976562 -9.195312 L 1.132812 -8.898438 L 1.847656 -6.945312 L 1.953125 -6.5625 L 2.441406 -5.253906 L 2.601562 -4.972656 L 4.011719 -1.011719 L 4.171875 -0.679688 Z M 4.273438 -0.382812 "/></g></g></g><g fill="#000000" fill-opacity="1"><g transform="translate(114.336135, 162.220302)"><g><path d="M 1.257812 -0.507812 L 1.484375 -0.175781 L 1.816406 0.015625 L 5.757812 -0.015625 L 6.070312 0.0351562 L 7.136719 -0.015625 L 8.199219 0.0507812 L 8.53125 0.015625 L 8.898438 -0.15625 L 9.054688 -0.488281 L 9.089844 -0.820312 L 9.074219 -1.902344 L 9.109375 -2.234375 L 8.882812 -2.582031 L 8.359375 -2.757812 L 6.054688 -2.792969 L 5.722656 -2.738281 L 5.339844 -2.773438 L 4.957031 -2.738281 L 4.589844 -2.949219 L 4.433594 -3.488281 L 4.449219 -4.34375 L 4.605469 -4.710938 L 4.921875 -4.902344 L 5.601562 -4.902344 L 5.949219 -4.9375 L 6.875 -4.886719 L 7.347656 -4.921875 L 7.710938 -4.886719 L 8.027344 -4.902344 L 8.375 -5.09375 L 8.550781 -5.425781 L 8.585938 -6.804688 L 8.550781 -7.152344 L 8.394531 -7.484375 L 8.097656 -7.675781 L 7.398438 -7.695312 L 7.050781 -7.660156 L 6.683594 -7.660156 L 6.28125 -7.695312 L 4.902344 -7.675781 L 4.605469 -7.871094 L 4.398438 -8.183594 L 4.363281 -8.722656 L 4.535156 -9.230469 L 5.078125 -9.386719 L 8.429688 -9.40625 L 8.792969 -9.597656 L 8.984375 -9.910156 L 8.953125 -10.625 L 8.898438 -10.957031 L 8.917969 -11.34375 L 8.96875 -11.671875 L 8.792969 -12.023438 L 8.429688 -12.179688 L 7.03125 -12.195312 L 6.71875 -12.160156 L 6.367188 -12.214844 L 5.601562 -12.179688 L 5.253906 -12.214844 L 4.570312 -12.195312 L 4.257812 -12.230469 L 1.972656 -12.179688 L 1.464844 -12.058594 L 1.292969 -11.671875 L 1.324219 -10.976562 L 1.257812 -10.46875 L 1.324219 -9.578125 L 1.292969 -9.214844 L 1.324219 -8.898438 L 1.324219 -5.777344 L 1.273438 -5.410156 L 1.324219 -4.730469 L 1.292969 -4.03125 L 1.34375 -3.664062 L 1.308594 -3.28125 L 1.324219 -2.949219 L 1.273438 -2.636719 L 1.308594 -2.234375 L 1.308594 -1.882812 L 1.34375 -1.203125 L 1.324219 -0.855469 Z M 1.257812 -0.507812 "/></g></g></g><g fill="#000000" fill-opacity="1"><g transform="translate(124.33356, 162.220302)"><g><path d="M 1.273438 -0.523438 L 1.464844 -0.121094 L 1.796875 0.0351562 L 7.574219 -0.0351562 L 8.234375 -0.121094 L 8.8125 -0.347656 L 9.476562 -0.734375 L 9.703125 -0.90625 L 9.980469 -1.167969 L 10.382812 -1.746094 L 10.539062 -2.078125 L 10.609375 -2.375 L 10.75 -2.722656 L 10.765625 -4.117188 L 10.695312 -4.449219 L 10.574219 -4.816406 L 10.261719 -5.425781 L 10.015625 -5.722656 L 9.753906 -5.984375 L 9.597656 -6.367188 L 9.667969 -6.71875 L 9.859375 -7.066406 L 10.066406 -7.363281 L 10.3125 -8.621094 L 10.292969 -9.125 L 10.101562 -9.769531 L 9.929688 -10.101562 L 9.824219 -10.433594 L 9.40625 -10.992188 L 9.160156 -11.238281 L 8.636719 -11.605469 L 7.992188 -11.953125 L 7.015625 -12.179688 L 1.761719 -12.214844 L 1.414062 -12.058594 L 1.257812 -11.691406 L 1.292969 -10.941406 L 1.257812 -10.433594 L 1.324219 -9.265625 L 1.273438 -8.898438 L 1.308594 -8.53125 L 1.273438 -8.199219 L 1.292969 -7.835938 L 1.257812 -7.503906 L 1.257812 -6.105469 L 1.308594 -5.742188 L 1.273438 -5.410156 L 1.273438 -4.710938 L 1.308594 -4.378906 L 1.273438 -2.949219 L 1.324219 -2.234375 L 1.257812 -1.1875 Z M 4.851562 -7.484375 L 4.433594 -7.625 L 4.257812 -7.972656 L 4.328125 -8.269531 L 4.328125 -8.601562 L 4.292969 -8.933594 L 4.484375 -9.230469 L 4.851562 -9.421875 L 6.105469 -9.371094 L 6.648438 -9.265625 L 6.859375 -9.125 L 7.085938 -8.882812 L 7.136719 -8.410156 L 7.050781 -7.886719 L 6.753906 -7.609375 L 6.160156 -7.484375 Z M 4.796875 -2.773438 L 4.5 -2.914062 L 4.308594 -3.28125 L 4.328125 -3.578125 L 4.292969 -3.910156 L 4.308594 -4.257812 L 4.433594 -4.570312 L 4.78125 -4.746094 L 6.628906 -4.746094 L 7.121094 -4.660156 L 7.382812 -4.46875 L 7.644531 -4.222656 L 7.675781 -3.734375 L 7.644531 -3.28125 L 7.414062 -3.035156 L 7.101562 -2.84375 L 6.160156 -2.757812 Z M 4.796875 -2.773438 "/></g></g></g><g fill="#000000" fill-opacity="1"><g transform="translate(135.84891, 162.220302)"><g/></g></g><g fill="#000000" fill-opacity="1"><g transform="translate(140.577178, 162.220302)"><g><path d="M 4.695312 0.15625 L 6.070312 0.191406 L 6.421875 0.15625 L 6.769531 0.0703125 L 7.121094 0.015625 L 7.46875 -0.121094 L 7.78125 -0.15625 L 8.113281 -0.3125 L 9.300781 -1.03125 L 9.804688 -1.554688 L 9.980469 -1.796875 L 10.171875 -2.179688 L 10.277344 -2.496094 L 10.382812 -2.792969 L 10.488281 -3.664062 L 10.453125 -4.222656 L 10.191406 -5.234375 L 10 -5.515625 L 9.542969 -6.039062 L 9.230469 -6.316406 L 8.953125 -6.457031 L 8.636719 -6.648438 L 7.277344 -7.066406 L 6.925781 -7.121094 L 6.578125 -7.136719 L 6.210938 -7.207031 L 5.707031 -7.207031 L 4.78125 -7.398438 L 4.136719 -7.710938 L 3.875 -7.957031 L 3.804688 -8.480469 L 3.890625 -8.953125 L 4.101562 -9.179688 L 4.363281 -9.371094 L 4.640625 -9.527344 L 4.957031 -9.597656 L 5.515625 -9.613281 L 6.070312 -9.542969 L 6.386719 -9.457031 L 6.699219 -9.246094 L 6.996094 -9.003906 L 7.257812 -8.65625 L 7.644531 -8.429688 L 8.460938 -8.496094 L 8.933594 -8.460938 L 9.28125 -8.460938 L 9.597656 -8.429688 L 9.929688 -8.671875 L 10.066406 -8.96875 L 10 -9.300781 L 9.964844 -9.632812 L 9.476562 -10.539062 L 9.089844 -11.0625 L 7.9375 -11.867188 L 6.960938 -12.195312 L 6.28125 -12.335938 L 4.9375 -12.371094 L 4.554688 -12.265625 L 4.207031 -12.25 L 3.890625 -12.195312 L 3.226562 -11.988281 L 2.636719 -11.636719 L 1.796875 -11.0625 L 1.1875 -10.242188 L 0.871094 -9.28125 L 0.820312 -8.429688 L 0.835938 -7.886719 L 0.960938 -7.1875 L 1.238281 -6.578125 L 1.882812 -5.777344 L 3.070312 -5.128906 L 3.699219 -4.921875 L 6.4375 -4.605469 L 7.066406 -4.308594 L 7.292969 -4.101562 L 7.398438 -3.664062 L 7.257812 -3.226562 L 7.03125 -2.964844 L 6.4375 -2.703125 L 5.898438 -2.667969 L 5.582031 -2.617188 L 4.695312 -2.703125 L 4.398438 -2.863281 L 4.101562 -3.054688 L 3.523438 -3.683594 L 3.175781 -3.820312 L 2.863281 -3.785156 L 2.53125 -3.839844 L 1.1875 -3.769531 L 0.871094 -3.628906 L 0.734375 -3.261719 L 0.785156 -2.914062 L 0.855469 -2.566406 L 0.960938 -2.25 L 1.292969 -1.605469 L 1.535156 -1.378906 L 1.761719 -1.117188 L 2.375 -0.734375 L 2.617188 -0.472656 L 2.949219 -0.3125 L 3.296875 -0.210938 L 3.976562 0.0351562 Z M 4.695312 0.15625 "/></g></g></g><g fill="#000000" fill-opacity="1"><g transform="translate(151.708682, 162.220302)"><g><path d="M 6.527344 0.210938 L 7.503906 0.191406 L 8.550781 0.0507812 L 9.859375 -0.382812 L 10.433594 -0.699219 L 10.695312 -0.90625 L 11.027344 -1.0625 L 11.515625 -1.484375 L 11.742188 -1.796875 L 11.988281 -2.042969 L 12.753906 -3.210938 L 13.015625 -3.875 L 13.15625 -4.535156 L 13.175781 -4.851562 L 13.261719 -5.199219 L 13.277344 -5.566406 L 13.347656 -6.070312 L 13.296875 -6.945312 L 13.175781 -7.660156 L 12.738281 -8.96875 L 12.40625 -9.613281 L 12.023438 -10.136719 L 11.535156 -10.679688 L 11.027344 -11.113281 L 10.625 -11.394531 L 10.101562 -11.621094 L 9.839844 -11.8125 L 8.496094 -12.230469 L 7.484375 -12.40625 L 7.015625 -12.421875 L 5.164062 -12.160156 L 3.855469 -11.671875 L 3.59375 -11.480469 L 3.28125 -11.324219 L 2.6875 -10.886719 L 1.832031 -9.894531 L 1.292969 -8.96875 L 1.03125 -8.304688 L 0.734375 -6.960938 L 0.679688 -5.546875 L 0.734375 -5.183594 L 0.820312 -4.867188 L 0.855469 -4.535156 L 1.011719 -3.875 L 1.816406 -2.285156 L 2.023438 -2.078125 L 2.25 -1.796875 L 2.511719 -1.554688 L 2.703125 -1.324219 L 3.28125 -0.871094 L 4.640625 -0.175781 L 5.148438 0 L 5.53125 0.0351562 L 6.160156 0.175781 Z M 7.503906 -2.878906 L 6.542969 -2.878906 L 6.160156 -2.929688 L 5.53125 -3.191406 L 5.253906 -3.351562 L 4.78125 -3.734375 L 4.554688 -3.976562 L 4.308594 -4.308594 L 4.222656 -4.589844 L 4.066406 -4.902344 L 3.925781 -5.546875 L 3.925781 -6.613281 L 4.011719 -6.925781 L 4.066406 -7.257812 L 4.207031 -7.574219 L 4.308594 -7.886719 L 4.730469 -8.445312 L 5.601562 -9.039062 L 5.828125 -9.125 L 6.507812 -9.300781 L 6.996094 -9.335938 L 7.835938 -9.230469 L 8.148438 -9.160156 L 8.460938 -9.019531 L 9.003906 -8.636719 L 9.683594 -7.921875 L 9.894531 -7.257812 L 10.050781 -6.925781 L 10.101562 -6.613281 L 10.066406 -5.546875 L 9.929688 -4.902344 L 9.804688 -4.589844 L 9.613281 -4.273438 L 9.507812 -4.011719 L 9.265625 -3.734375 L 8.429688 -3.160156 L 8.113281 -3.070312 L 7.851562 -2.949219 Z M 7.503906 -2.878906 "/></g></g></g><g fill="#000000" fill-opacity="1"><g transform="translate(165.701582, 162.220302)"><g><path d="M 1.308594 -0.507812 L 1.464844 -0.191406 L 2.023438 0.015625 L 8.199219 -0.015625 L 8.691406 -0.191406 L 8.882812 -0.507812 L 8.847656 -0.890625 L 8.863281 -1.238281 L 8.898438 -1.554688 L 8.847656 -1.9375 L 8.898438 -2.269531 L 8.671875 -2.652344 L 8.394531 -2.828125 L 8.007812 -2.773438 L 4.9375 -2.808594 L 4.570312 -2.964844 L 4.46875 -3.351562 L 4.484375 -3.996094 L 4.433594 -4.328125 L 4.449219 -4.710938 L 4.414062 -5.058594 L 4.449219 -5.425781 L 4.433594 -6.300781 L 4.484375 -6.789062 L 4.433594 -7.171875 L 4.484375 -7.539062 L 4.433594 -10.261719 L 4.46875 -10.644531 L 4.433594 -11.5 L 4.257812 -12.023438 L 3.804688 -12.230469 L 1.988281 -12.195312 L 1.484375 -12.003906 L 1.257812 -11.535156 L 1.359375 -10.625 L 1.324219 -10.292969 L 1.273438 -9.929688 L 1.324219 -9.578125 L 1.359375 -9.246094 L 1.308594 -8.863281 L 1.324219 -8.53125 L 1.292969 -8.183594 L 1.34375 -7.816406 L 1.292969 -7.503906 L 1.324219 -7.152344 L 1.273438 -6.824219 L 1.324219 -6.070312 L 1.273438 -5.742188 L 1.324219 -5.042969 L 1.273438 -4.695312 L 1.292969 -3.996094 L 1.324219 -3.683594 L 1.308594 -1.554688 L 1.34375 -1.203125 L 1.273438 -0.871094 Z M 1.308594 -0.507812 "/></g></g></g><g fill="#000000" fill-opacity="1"><g transform="translate(175.088341, 162.220302)"><g><path d="M 5.148438 0.140625 L 5.984375 0.210938 L 6.859375 0.175781 L 7.554688 0.015625 L 7.921875 -0.121094 L 8.269531 -0.210938 L 8.550781 -0.382812 L 8.863281 -0.523438 L 9.144531 -0.714844 L 9.929688 -1.414062 L 10.121094 -1.726562 L 10.347656 -1.988281 L 10.453125 -2.339844 L 10.625 -2.636719 L 10.75 -2.964844 L 10.871094 -4.730469 L 10.820312 -6.140625 L 10.886719 -6.507812 L 10.886719 -6.824219 L 10.820312 -7.171875 L 10.800781 -7.503906 L 10.835938 -7.871094 L 10.820312 -8.359375 L 10.851562 -8.898438 L 10.835938 -9.28125 L 10.886719 -9.613281 L 10.835938 -9.964844 L 10.851562 -11.375 L 10.800781 -11.671875 L 10.660156 -12.058594 L 10.101562 -12.214844 L 8.460938 -12.230469 L 8.078125 -12.074219 L 7.90625 -11.691406 L 7.921875 -9.980469 L 7.886719 -9.632812 L 7.90625 -8.953125 L 7.871094 -8.585938 L 7.921875 -8.21875 L 7.871094 -6.839844 L 7.9375 -6.527344 L 7.90625 -6.140625 L 7.921875 -5.515625 L 7.886719 -5.164062 L 7.90625 -4.273438 L 7.835938 -3.714844 L 7.675781 -3.386719 L 7.519531 -3.140625 L 7.242188 -2.878906 L 6.542969 -2.652344 L 6.070312 -2.617188 L 5.496094 -2.652344 L 5.183594 -2.738281 L 4.796875 -2.929688 L 4.535156 -3.160156 L 4.328125 -3.402344 L 4.222656 -3.769531 L 4.1875 -6.839844 L 4.136719 -7.1875 L 4.117188 -8.269531 L 4.152344 -8.585938 L 4.152344 -9.980469 L 4.101562 -10.488281 L 4.101562 -10.820312 L 4.1875 -11.34375 L 4.1875 -11.707031 L 3.996094 -12.039062 L 3.578125 -12.195312 L 1.746094 -12.214844 L 1.394531 -12.023438 L 1.238281 -11.671875 L 1.238281 -10.625 L 1.152344 -10.328125 L 1.222656 -9.597656 L 1.167969 -8.933594 L 1.257812 -7.886719 L 1.1875 -7.554688 L 1.238281 -7.171875 L 1.203125 -6.839844 L 1.222656 -6.492188 L 1.1875 -6.160156 L 1.238281 -5.460938 L 1.222656 -4.207031 L 1.273438 -3.699219 L 1.273438 -3.332031 L 1.378906 -2.984375 L 1.429688 -2.652344 L 1.535156 -2.320312 L 1.882812 -1.726562 L 2.355469 -1.152344 L 2.582031 -0.925781 L 3.175781 -0.574219 L 3.4375 -0.367188 L 3.769531 -0.226562 L 4.171875 -0.105469 L 4.433594 0.0351562 L 4.816406 0.0507812 Z M 5.148438 0.140625 "/></g></g></g><g fill="#000000" fill-opacity="1"><g transform="translate(187.127117, 162.220302)"><g><path d="M 3.351562 -0.539062 L 3.488281 -0.175781 L 3.855469 0 L 4.1875 -0.0351562 L 4.535156 0 L 4.867188 -0.0351562 L 5.949219 -0.0351562 L 6.300781 -0.175781 L 6.4375 -0.523438 L 6.421875 -0.855469 L 6.457031 -1.257812 L 6.4375 -1.953125 L 6.386719 -2.25 L 6.4375 -2.617188 L 6.472656 -3.683594 L 6.4375 -3.996094 L 6.492188 -4.730469 L 6.421875 -8.199219 L 6.472656 -8.550781 L 6.4375 -8.933594 L 6.578125 -9.246094 L 6.960938 -9.40625 L 7.257812 -9.421875 L 7.609375 -9.40625 L 7.921875 -9.441406 L 8.882812 -9.421875 L 9.28125 -9.578125 L 9.457031 -9.929688 L 9.421875 -10.292969 L 9.457031 -11.726562 L 9.28125 -12.074219 L 8.933594 -12.25 L 8.515625 -12.214844 L 8.234375 -12.25 L 7.90625 -12.25 L 7.519531 -12.195312 L 7.171875 -12.195312 L 6.824219 -12.230469 L 6.472656 -12.230469 L 6.070312 -12.179688 L 0.871094 -12.214844 L 0.488281 -12.039062 L 0.3125 -11.691406 L 0.296875 -9.945312 L 0.488281 -9.5625 L 0.835938 -9.386719 L 1.292969 -9.441406 L 2.84375 -9.421875 L 3.160156 -9.230469 L 3.332031 -8.898438 L 3.386719 -6.980469 L 3.332031 -6.4375 L 3.367188 -6.105469 L 3.332031 -5.757812 L 3.332031 -5.058594 L 3.386719 -4.554688 L 3.316406 -4.03125 L 3.332031 -3.683594 L 3.316406 -3.316406 L 3.367188 -2.25 L 3.332031 -1.902344 Z M 3.351562 -0.539062 "/></g></g></g><g fill="#000000" fill-opacity="1"><g transform="translate(196.880273, 162.220302)"><g><path d="M 0.835938 -0.507812 L 1.011719 -0.140625 L 1.359375 -0.015625 L 6.542969 0.015625 L 6.875 -0.15625 L 7.066406 -0.472656 L 7.066406 -0.855469 L 7.03125 -1.167969 L 7.085938 -2.234375 L 6.839844 -2.53125 L 5.671875 -2.898438 L 5.480469 -3.246094 L 5.515625 -4.675781 L 5.445312 -5.375 L 5.515625 -6.105469 L 5.480469 -6.628906 L 5.515625 -7.171875 L 5.480469 -7.503906 L 5.515625 -7.851562 L 5.480469 -8.21875 L 5.480469 -8.953125 L 5.671875 -9.265625 L 6.003906 -9.457031 L 6.386719 -9.476562 L 6.71875 -9.667969 L 6.910156 -10 L 6.910156 -11.027344 L 6.945312 -11.34375 L 6.910156 -11.691406 L 6.769531 -12.039062 L 6.210938 -12.195312 L 3.996094 -12.214844 L 3.613281 -12.179688 L 2.546875 -12.195312 L 2.214844 -12.179688 L 1.535156 -12.214844 L 1.152344 -12.039062 L 0.960938 -11.671875 L 0.960938 -11.34375 L 0.925781 -11.046875 L 0.925781 -10.660156 L 0.960938 -10.3125 L 0.960938 -9.980469 L 1.132812 -9.648438 L 2.199219 -9.28125 L 2.425781 -8.96875 L 2.375 -7.484375 L 2.390625 -7.1875 L 2.441406 -6.789062 L 2.425781 -6.070312 L 2.390625 -5.722656 L 2.460938 -5.042969 L 2.375 -4.695312 L 2.441406 -3.945312 L 2.40625 -3.261719 L 2.234375 -2.878906 L 1.082031 -2.511719 L 0.871094 -2.179688 L 0.835938 -1.847656 Z M 0.835938 -0.507812 "/></g></g></g><g fill="#000000" fill-opacity="1"><g transform="translate(204.801446, 162.220302)"><g><path d="M 6.527344 0.210938 L 7.503906 0.191406 L 8.550781 0.0507812 L 9.859375 -0.382812 L 10.433594 -0.699219 L 10.695312 -0.90625 L 11.027344 -1.0625 L 11.515625 -1.484375 L 11.742188 -1.796875 L 11.988281 -2.042969 L 12.753906 -3.210938 L 13.015625 -3.875 L 13.15625 -4.535156 L 13.175781 -4.851562 L 13.261719 -5.199219 L 13.277344 -5.566406 L 13.347656 -6.070312 L 13.296875 -6.945312 L 13.175781 -7.660156 L 12.738281 -8.96875 L 12.40625 -9.613281 L 12.023438 -10.136719 L 11.535156 -10.679688 L 11.027344 -11.113281 L 10.625 -11.394531 L 10.101562 -11.621094 L 9.839844 -11.8125 L 8.496094 -12.230469 L 7.484375 -12.40625 L 7.015625 -12.421875 L 5.164062 -12.160156 L 3.855469 -11.671875 L 3.59375 -11.480469 L 3.28125 -11.324219 L 2.6875 -10.886719 L 1.832031 -9.894531 L 1.292969 -8.96875 L 1.03125 -8.304688 L 0.734375 -6.960938 L 0.679688 -5.546875 L 0.734375 -5.183594 L 0.820312 -4.867188 L 0.855469 -4.535156 L 1.011719 -3.875 L 1.816406 -2.285156 L 2.023438 -2.078125 L 2.25 -1.796875 L 2.511719 -1.554688 L 2.703125 -1.324219 L 3.28125 -0.871094 L 4.640625 -0.175781 L 5.148438 0 L 5.53125 0.0351562 L 6.160156 0.175781 Z M 7.503906 -2.878906 L 6.542969 -2.878906 L 6.160156 -2.929688 L 5.53125 -3.191406 L 5.253906 -3.351562 L 4.78125 -3.734375 L 4.554688 -3.976562 L 4.308594 -4.308594 L 4.222656 -4.589844 L 4.066406 -4.902344 L 3.925781 -5.546875 L 3.925781 -6.613281 L 4.011719 -6.925781 L 4.066406 -7.257812 L 4.207031 -7.574219 L 4.308594 -7.886719 L 4.730469 -8.445312 L 5.601562 -9.039062 L 5.828125 -9.125 L 6.507812 -9.300781 L 6.996094 -9.335938 L 7.835938 -9.230469 L 8.148438 -9.160156 L 8.460938 -9.019531 L 9.003906 -8.636719 L 9.683594 -7.921875 L 9.894531 -7.257812 L 10.050781 -6.925781 L 10.101562 -6.613281 L 10.066406 -5.546875 L 9.929688 -4.902344 L 9.804688 -4.589844 L 9.613281 -4.273438 L 9.507812 -4.011719 L 9.265625 -3.734375 L 8.429688 -3.160156 L 8.113281 -3.070312 L 7.851562 -2.949219 Z M 7.503906 -2.878906 "/></g></g></g><g fill="#000000" fill-opacity="1"><g transform="translate(218.794346, 162.220302)"><g><path d="M 10.292969 -0.277344 L 10.800781 -0.0507812 L 11.253906 0.0859375 L 11.65625 -0.105469 L 11.8125 -0.472656 L 11.898438 -5.21875 L 11.832031 -5.707031 L 11.867188 -6.089844 L 11.796875 -8.183594 L 11.847656 -8.882812 L 11.8125 -9.214844 L 11.8125 -9.910156 L 11.882812 -10.261719 L 11.847656 -10.785156 L 11.882812 -11.691406 L 11.671875 -12.003906 L 11.289062 -12.179688 L 10.941406 -12.214844 L 10.609375 -12.214844 L 10.226562 -12.179688 L 9.859375 -12.230469 L 9.542969 -12.195312 L 9.195312 -12.214844 L 8.777344 -12.039062 L 8.601562 -11.671875 L 8.585938 -8.496094 L 8.65625 -8.132812 L 8.65625 -7.800781 L 8.585938 -7.433594 L 8.601562 -6.734375 L 8.515625 -6.457031 L 8.269531 -6.527344 L 7.503906 -7.3125 L 7.242188 -7.519531 L 6.628906 -8.148438 L 6.351562 -8.359375 L 6.160156 -8.601562 L 5.792969 -8.984375 L 5.253906 -9.441406 L 5.058594 -9.703125 L 4.730469 -9.929688 L 4.554688 -10.191406 L 4.257812 -10.398438 L 4.03125 -10.695312 L 3.089844 -11.65625 L 2.390625 -12.128906 L 1.917969 -12.265625 L 1.5 -12.058594 L 1.273438 -11.726562 L 1.308594 -9.28125 L 1.273438 -8.933594 L 1.324219 -8.21875 L 1.292969 -7.90625 L 1.308594 -7.539062 L 1.257812 -7.171875 L 1.324219 -4.675781 L 1.292969 -4.363281 L 1.292969 -4.03125 L 1.257812 -3.648438 L 1.257812 -3.316406 L 1.308594 -2.949219 L 1.292969 -2.234375 L 1.324219 -1.882812 L 1.273438 -1.222656 L 1.324219 -0.871094 L 1.324219 -0.539062 L 1.484375 -0.15625 L 1.816406 0.0351562 L 2.40625 0 L 3.28125 0.0507812 L 3.648438 0 L 4.046875 0.0351562 L 4.398438 -0.140625 L 4.554688 -0.488281 L 4.5 -0.835938 L 4.554688 -5.113281 L 4.484375 -5.480469 L 4.660156 -5.6875 L 4.886719 -5.636719 L 7.382812 -3.191406 L 7.660156 -2.964844 L 9.351562 -1.273438 L 9.578125 -0.996094 L 9.859375 -0.769531 L 10.066406 -0.507812 Z M 10.292969 -0.277344 "/></g></g></g></svg>